Coordinates
version=1
nRows=17
nColumns=36
inDegrees=yes

Units are S.I. units (second, meters, Newtons, ...)
If the header above contains a line with 'inDegrees', this indicates whether rotational values are in degrees (yes) or radians (no).

endheader
time	pelvis_tilt	pelvis_list	pelvis_rotation	pelvis_tx	pelvis_ty	pelvis_tz	hip_flexion_r	hip_adduction_r	hip_rotation_r	knee_angle_r	knee_angle_r_beta	ankle_angle_r	subtalar_angle_r	mtp_angle_r	hip_flexion_l	hip_adduction_l	hip_rotation_l	knee_angle_l	knee_angle_l_beta	ankle_angle_l	subtalar_angle_l	mtp_angle_l	lumbar_extension	lumbar_bending	lumbar_rotation	arm_flex_r	arm_add_r	arm_rot_r	elbow_flex_r	pro_sup_r	arm_flex_l	arm_add_l	arm_rot_l	elbow_flex_l	pro_sup_l
      5.13333330	     -0.07388712	      0.53129355	      1.59374685	      0.32387009	      0.95301956	     -0.09276433	     -4.21613398	     -2.12662287	     -6.53666557	      0.82708281	      0.01443532	     -0.45005591	    -16.65346017	     -7.49999987	     -3.72641995	     -1.13280617	      6.62810116	      2.24472718	      0.03917788	     -1.36258138	    -12.80911178	     -7.49999987	     -4.48744954	     -1.19246691	      4.01420127	     -5.76076592	    -22.23726733	     36.43505395	    106.32520232	     84.50272067	      7.28837723	    -22.64708874	     46.46709666	    100.08165136	     75.54217023
      5.15000000	     -0.04428666	      0.54246854	      1.56001468	      0.32826225	      0.95291529	     -0.08835452	     -4.31990874	     -2.07014355	     -6.55536871	      0.82858447	      0.01446153	     -0.44651273	    -16.65146683	     -7.49999987	     -3.78991280	     -1.19598979	      6.66128593	      2.30894385	      0.04029867	     -1.40604606	    -12.77476145	     -7.49999987	     -4.43423344	     -1.27729292	      4.05475065	     -5.88369992	    -22.19966373	     36.48717677	    106.30120090	     84.51141393	      7.16601901	    -22.72457563	     46.49574269	    100.08923602	     75.54996716
      5.16666670	     -0.08051695	      0.57632329	      1.50133606	      0.32826313	      0.95307934	     -0.08810731	     -4.39812533	     -2.05032170	     -6.62512207	      0.78926712	      0.01377531	     -0.38533428	    -16.59440629	     -7.49999987	     -3.81734698	     -1.23027388	      6.58894153	      2.33877486	      0.04081932	     -1.35414222	    -12.63935870	     -7.49999987	     -4.32548575	     -1.35249647	      4.13390600	     -6.14017552	    -22.06787017	     36.48460383	    105.94491099	     85.35799353	      6.72324006	    -22.85020045	     46.24326745	    100.36722523	     76.28926406
      5.18333330	     -0.09930410	      0.60418652	      1.48888292	      0.32831977	      0.95276646	     -0.08816991	     -4.47463394	     -2.01819096	     -6.75638506	      0.76098046	      0.01328161	     -0.34653594	    -16.50530990	     -7.49999987	     -3.85156503	     -1.25855198	      6.80593366	      2.34918139	      0.04100095	     -1.53206908	    -13.02563784	     -7.49999987	     -4.16712977	     -1.43343979	      4.17557642	     -6.26222895	    -21.97977846	     36.74964201	    105.53283704	     82.49816801	      6.35527133	    -22.97234867	     46.09780262	    100.54386952	     74.44240985
      5.20000000	     -0.09462793	      0.63945504	      1.38145352	      0.32818079	      0.95302932	     -0.08790989	     -4.53772234	     -2.00842418	     -6.70640274	      0.74174328	      0.01294586	     -0.35707222	    -16.58682630	     -7.49999987	     -3.92197930	     -1.26889655	      6.62353688	      2.34243624	      0.04088322	     -1.36232793	    -12.59057972	     -7.49999987	     -4.10160292	     -1.51139122	      4.41057194	     -6.48683841	    -21.87233564	     36.56586624	    105.19026081	     85.41916195	      6.20536221	    -22.95847301	     45.94203494	    100.46911883	     76.63818222
      5.21666670	     -0.09897249	      0.66029801	      1.38339716	      0.32828228	      0.95265796	     -0.08794682	     -4.59413771	     -1.99415755	     -6.56569749	      0.70170214	      0.01224701	     -0.23361199	    -16.45000762	     -7.49999987	     -3.97137738	     -1.26199038	      6.72605080	      2.37150342	      0.04139054	     -1.43144572	    -12.82099421	     -7.49999987	     -3.97442630	     -1.55571805	      4.51490801	     -6.49151728	    -21.76486285	     36.69501996	    104.87939588	     85.26764764	      6.13689905	    -22.96064893	     45.90889309	    100.41604827	     76.73654291
      5.23333330	     -0.08776246	      0.69813237	      1.46622298	      0.32802812	      0.95287421	     -0.08779726	     -4.66106277	     -2.00000407	     -6.48197282	      0.67224231	      0.01173284	     -0.08280298	    -16.27180136	     -7.49999987	     -4.01844538	     -1.25315844	      6.84809530	      2.37387852	      0.04143200	     -1.48100959	    -12.88827899	     -7.49999987	     -3.89783392	     -1.60389770	      4.58526905	     -6.50571215	    -21.62338495	     36.68446588	    104.63824881	     85.52721873	      6.24324220	    -22.98642599	     46.03356112	    100.27713099	     76.94836182
      5.25000000	     -0.07199440	      0.70015020	      1.52955615	      0.32808755	      0.95258414	     -0.08795127	     -4.71977819	     -1.97593567	     -6.30499634	      0.64366480	      0.01123407	      0.00120950	    -16.22647785	     -7.49999987	     -4.04400908	     -1.24284682	      6.94781057	      2.37115289	      0.04138442	     -1.40170724	    -12.75628393	     -7.49999987	     -3.86862532	     -1.63638159	      4.64076799	     -6.52751814	    -21.51141762	     36.69806740	    104.51311008	     85.59063018	      6.30030180	    -22.96594631	     46.05942281	    100.22598503	     76.95219216
      5.26666670	     -0.06293614	      0.69457039	      1.65650715	      0.32786643	      0.95280874	     -0.08792111	     -4.77939814	     -1.93077919	     -6.20770927	      0.62146083	      0.01084654	      0.16563883	    -15.98168360	     -7.49999987	     -4.04660741	     -1.24239432	      7.12229361	      2.36376945	      0.04125556	     -1.33347672	    -12.66861198	     -7.49999987	     -3.84672453	     -1.67177573	      4.62616811	     -6.53463004	    -21.39934057	     36.64578034	    104.39490933	     85.75427864	      6.40393620	    -22.95444449	     46.15916629	    100.12700187	     76.98667429
      5.28333330	     -0.05726344	      0.69270331	      1.75315406	      0.32795110	      0.95245590	     -0.08810164	     -4.82293265	     -1.90635032	     -6.04610716	      0.60370315	      0.01053661	      0.13454738	    -16.04144337	     -7.49999987	     -4.03908143	     -1.23476932	      7.19892682	      2.34642467	      0.04095284	     -1.25591264	    -12.42323225	     -7.49999987	     -3.81259743	     -1.68928432	      4.66344444	     -6.58980808	    -21.31081386	     36.59494011	    104.23777037	     85.67472913	      6.52775968	    -22.91841170	     46.23792697	    100.04478962	     77.06569322
      5.30000000	     -0.06511135	      0.66697040	      1.81076363	      0.32771500	      0.95267333	     -0.08799494	     -4.83329309	     -1.85967990	     -5.84380250	      0.60044437	      0.01047973	      0.09120886	    -16.14395439	     -7.49999987	     -4.03405209	     -1.23991964	      7.41246695	      2.29500211	      0.04005534	     -1.37622031	    -12.68245546	     -7.49999987	     -3.70260677	     -1.67353448	      4.59721300	     -6.43169278	    -21.37153111	     37.06221991	    104.22070518	     81.17922541	      6.52841307	    -22.90928956	     46.35916882	    100.03096779	     73.89025447
      5.31666670	     -0.01326241	      0.66995834	      1.91750592	      0.32774536	      0.95239187	     -0.08820245	     -4.92803711	     -1.84295970	     -5.89550900	      0.58961039	      0.01029064	      0.13818276	    -15.98177081	     -7.49999987	     -4.06008169	     -1.23069353	      7.40055098	      2.30258111	      0.04018762	     -1.16396836	    -12.21230587	     -7.49999987	     -3.75210179	     -1.66740510	      4.78157118	     -6.71294820	    -21.24792513	     36.46286986	    104.09558404	     85.63030351	      6.87333113	    -22.79275229	     46.56906319	     99.56258348	     76.96818669
      5.33333330	      0.01613238	      0.65511682	      2.02308927	      0.32752279	      0.95272131	     -0.08811678	     -4.98385562	     -1.80410750	     -5.93637997	      0.58836028	      0.01026882	      0.11114672	    -15.90430843	     -7.49999987	     -4.07212414	     -1.25448144	      7.46319042	      2.29326465	      0.04002502	     -1.01913470	    -11.98252291	     -7.49999987	     -3.74092938	     -1.62575549	      4.71405650	     -6.61647958	    -21.26479939	     36.52951927	    104.01087791	     85.72159783	      6.72498634	    -22.69351362	     46.33950027	     99.53285872	     77.24301427
      5.35000000	      0.01849756	      0.66465559	      2.07605940	      0.32767647	      0.95237875	     -0.08818973	     -4.99740048	     -1.81081547	     -5.68212988	      0.58026091	      0.01012746	     -0.07910228	    -16.33872836	     -7.49999987	     -4.05856244	     -1.24535344	      7.51194880	      2.28239737	      0.03983535	     -1.00903438	    -11.90746936	     -7.49999987	     -3.65486278	     -1.61912670	      4.73028870	     -6.65042991	    -21.25335835	     36.62859160	    104.00801963	     83.60859718	      6.64302631	    -22.59571000	     46.25861397	     99.47788005	     75.87028170
      5.36666670	     -0.04767538	      0.65182427	      2.17321083	      0.32750177	      0.95249177	     -0.08815104	     -4.95065624	     -1.78061848	     -5.53677576	      0.58519580	      0.01021359	     -0.15717281	    -16.53896718	     -7.49999987	     -3.99067536	     -1.25524949	      7.82426964	      2.23975004	      0.03909101	     -1.12027873	    -12.27248605	     -7.49999987	     -3.47726668	     -1.61298510	      4.66066127	     -6.58642486	    -21.29300037	     36.92609928	    104.12746984	     79.09249353	      6.57086983	    -22.48870832	     46.31720543	     99.48581360	     72.55322208
      5.38333330	      0.08268287	      0.62703260	      2.17207154	      0.32752906	      0.94934773	     -0.08835080	     -5.08964263	     -1.75391983	     -5.54359952	      0.60406651	      0.01054295	     -0.00802360	    -16.36481868	     -7.49999987	     -4.10442223	     -1.28839784	      7.57666057	      2.28046464	      0.03980162	     -0.76011227	    -11.70076108	     -7.49999987	     -3.70827669	     -1.49654810	      4.91187429	     -6.91058139	    -21.23392422	     36.13511295	    104.34649402	     86.04661863	      6.67998478	    -22.29133401	     46.05253937	     99.15413360	     77.37440733
      5.40000000	      0.27136483	      0.62672148	      2.27112396	      0.32731574	      0.95018656	     -0.08812507	     -5.32875774	     -1.71886305	     -5.61603028	      0.61446612	      0.01072446	      0.10639527	    -16.04881825	     -7.49999987	     -4.28702778	     -1.33428196	      7.53656942	      2.35894097	      0.04117129	     -0.53227958	    -11.47347851	     -7.49999987	     -3.85056067	     -1.46221258	      4.70295861	     -6.72126662	    -21.26392466	     36.54905621	    104.32355153	     81.96944061	      6.59450000	    -22.27154275	     46.01153023	     99.02610436	     74.44432997
